<mxfile host="65bd71144e">
    <diagram id="NlnY14xBPF221WtbC4Jm" name="第 1 页">
        <mxGraphModel dx="325" dy="365" grid="1" gridSize="10" guides="1" tooltips="1" connect="1" arrows="1" fold="1" page="1" pageScale="1" pageWidth="827" pageHeight="583" math="0" shadow="0">
            <root>
                <mxCell id="0"/>
                <mxCell id="1" parent="0"/>
                <mxCell id="2" value="主控&lt;br&gt;ESP32S3" style="rounded=0;whiteSpace=wrap;html=1;" vertex="1" parent="1">
                    <mxGeometry x="300" y="222" width="120" height="108" as="geometry"/>
                </mxCell>
                <mxCell id="3" value="RAM&amp;amp;ROM&lt;br&gt;XTX（8M&amp;amp;16M）" style="rounded=0;whiteSpace=wrap;html=1;" vertex="1" parent="1">
                    <mxGeometry x="420" y="222" width="120" height="42" as="geometry"/>
                </mxCell>
                <mxCell id="5" value="主供电&lt;br&gt;DC-DC" style="rounded=0;whiteSpace=wrap;html=1;" vertex="1" parent="1">
                    <mxGeometry x="300" y="180" width="240" height="42" as="geometry"/>
                </mxCell>
                <mxCell id="6" value="Flash&lt;br&gt;GD（8Gbit）" style="rounded=0;whiteSpace=wrap;html=1;" vertex="1" parent="1">
                    <mxGeometry x="420" y="264" width="120" height="42" as="geometry"/>
                </mxCell>
                <mxCell id="7" value="外围电路" style="rounded=0;whiteSpace=wrap;html=1;" vertex="1" parent="1">
                    <mxGeometry x="420" y="306" width="60" height="24" as="geometry"/>
                </mxCell>
                <mxCell id="8" value="IMU" style="rounded=0;whiteSpace=wrap;html=1;" vertex="1" parent="1">
                    <mxGeometry x="480" y="306" width="60" height="24" as="geometry"/>
                </mxCell>
                <mxCell id="9" value="显示供电+背光" style="rounded=0;whiteSpace=wrap;html=1;" vertex="1" parent="1">
                    <mxGeometry x="560" y="180" width="240" height="20" as="geometry"/>
                </mxCell>
                <mxCell id="10" value="TFT LCD 1.54" style="rounded=0;whiteSpace=wrap;html=1;" vertex="1" parent="1">
                    <mxGeometry x="560" y="200" width="120" height="24" as="geometry"/>
                </mxCell>
                <mxCell id="11" value="触摸IIC" style="rounded=0;whiteSpace=wrap;html=1;" vertex="1" parent="1">
                    <mxGeometry x="680" y="200" width="120" height="24" as="geometry"/>
                </mxCell>
                <mxCell id="12" value="ANT+供电" style="rounded=0;whiteSpace=wrap;html=1;" vertex="1" parent="1">
                    <mxGeometry x="560" y="250" width="240" height="20" as="geometry"/>
                </mxCell>
                <mxCell id="13" value="nRF52810" style="rounded=0;whiteSpace=wrap;html=1;" vertex="1" parent="1">
                    <mxGeometry x="560" y="270" width="120" height="90" as="geometry"/>
                </mxCell>
                <mxCell id="14" value="晶振" style="rounded=0;whiteSpace=wrap;html=1;" vertex="1" parent="1">
                    <mxGeometry x="680" y="270" width="120" height="30" as="geometry"/>
                </mxCell>
                <mxCell id="18" value="天线&amp;amp;匹配" style="rounded=0;whiteSpace=wrap;html=1;" vertex="1" parent="1">
                    <mxGeometry x="680" y="300" width="120" height="30" as="geometry"/>
                </mxCell>
                <mxCell id="20" value="外围电路" style="rounded=0;whiteSpace=wrap;html=1;" vertex="1" parent="1">
                    <mxGeometry x="680" y="330" width="120" height="30" as="geometry"/>
                </mxCell>
            </root>
        </mxGraphModel>
    </diagram>
</mxfile>